<?xml version="1.0" encoding="UTF-8"?>
<svg version="1.1" xmlns="http://www.w3.org/2000/svg" width="48" height="48">
<path d="M0 0 C2.65824393 1.59972165 4.7426111 3.31074373 6.96484375 5.46875 C9.50978625 7.38356278 10.88346454 7.32591221 14 7 C15.34332728 6.70955086 16.68225804 6.39044206 18 6 C16.82191948 9.3529984 15.80593388 11.7552529 13 14 C8.68509373 15.43830209 4.38066599 15.94346722 0.09765625 14.24609375 C-2.78478393 12.63772997 -5.03071795 10.97085733 -7.4375 8.6875 C-11.23851054 6.1843955 -13.62414056 7.10999469 -18 8 C-15.12877559 -0.85294193 -8.45732832 -1.55121851 0 0 Z " fill="#00A3C0" transform="translate(18,24)"/>
<path d="M0 0 C2.88244018 1.60836378 5.1283742 3.27523642 7.53515625 5.55859375 C11.33616679 8.06169825 13.72179681 7.13609906 18.09765625 6.24609375 C16.81528742 10.20006432 15.66882009 12.09604485 12.09765625 14.24609375 C6.97480933 15.2691804 2.04432432 15.4175916 -2.51171875 12.67578125 C-4.83984375 10.74609375 -4.83984375 10.74609375 -6.8671875 8.77734375 C-9.41213 6.86253097 -10.78580829 6.92018154 -13.90234375 7.24609375 C-15.24567103 7.53654289 -16.58460179 7.85565169 -17.90234375 8.24609375 C-16.72426323 4.89309535 -15.70827763 2.49084085 -12.90234375 0.24609375 C-8.58743748 -1.19220834 -4.28300974 -1.69737347 0 0 Z " fill="#00B4D2" transform="translate(29.90234375,9.75390625)"/>
</svg>
