<?xml version="1.0" encoding="UTF-8"?>
<svg version="1.1" xmlns="http://www.w3.org/2000/svg" width="48" height="48">
<path d="M0 0 C2.14039032 0.87062497 4.2305751 1.80970488 6.32128906 2.79345703 C7.04445312 3.11894531 7.76761719 3.44443359 8.51269531 3.77978516 C13.75540051 6.16506848 13.75540051 6.16506848 14.94628906 7.35595703 C15.03329248 8.99068585 15.05329969 10.62909758 15.04394531 12.26611328 C15.04072266 13.25546875 15.0375 14.24482422 15.03417969 15.26416016 C15.02161133 16.82553711 15.02161133 16.82553711 15.00878906 18.41845703 C15.00427734 19.46324219 14.99976563 20.50802734 14.99511719 21.58447266 C14.98328819 24.17502363 14.96680596 26.76546262 14.94628906 29.35595703 C12.12677881 30.88304133 9.28885622 32.37229737 6.44628906 33.85595703 C5.65480469 34.28521484 4.86332031 34.71447266 4.04785156 35.15673828 C-1.33296923 37.93535886 -4.99624973 39.17323354 -11.05371094 38.35595703 C-14.04344874 37.27503067 -16.76908204 35.88126517 -19.55371094 34.35595703 C-22.02871094 33.03595703 -24.50371094 31.71595703 -27.05371094 30.35595703 C-27.05371094 23.09595703 -27.05371094 15.83595703 -27.05371094 8.35595703 C-6.35558119 -1.99310784 -6.35558119 -1.99310784 0 0 Z " fill="#B91D1D" transform="translate(30.0537109375,5.64404296875)"/>
<path d="M0 0 C0 3.96 0 7.92 0 12 C-2.82388294 13.52055235 -5.65693949 15.01608284 -8.5 16.5 C-9.68722656 17.14388672 -9.68722656 17.14388672 -10.8984375 17.80078125 C-16.2792583 20.57940182 -19.94253879 21.81727651 -26 21 C-28.98655093 19.92022584 -31.71854211 18.52465099 -34.5 17 C-35.22703125 16.6184375 -35.9540625 16.236875 -36.703125 15.84375 C-38.47649265 14.91039861 -40.23940082 13.95721897 -42 13 C-42 9.04 -42 5.08 -42 1 C-36.6462143 2.67305803 -31.90445429 4.3919347 -27.1171875 7.328125 C-21.07632608 9.24515113 -15.07999439 5.96132731 -9.6875 3.4375 C-2.22725049 0 -2.22725049 0 0 0 Z " fill="#B91D1D" transform="translate(45,23)"/>
<path d="M0 0 C0.72316406 0.30873047 1.44632813 0.61746094 2.19140625 0.93554688 C4.04588096 1.76188411 5.8417807 2.71691327 7.625 3.6875 C8.12 5.1725 8.12 5.1725 8.625 6.6875 C6.8125 7.75 6.8125 7.75 4.625 8.6875 C3.635 8.3575 2.645 8.0275 1.625 7.6875 C1.625 7.0275 1.625 6.3675 1.625 5.6875 C-2.03805234 4.93823929 -4.79855152 4.4494986 -8.375 5.6875 C-8.375 7.0075 -8.375 8.3275 -8.375 9.6875 C-9.035 9.6875 -9.695 9.6875 -10.375 9.6875 C-10.705 10.6775 -11.035 11.6675 -11.375 12.6875 C-17.125 11.8125 -17.125 11.8125 -19.375 10.6875 C-19.375 10.0275 -19.375 9.3675 -19.375 8.6875 C-21.685 8.6875 -23.995 8.6875 -26.375 8.6875 C-26.375 3.68440402 -26.375 3.68440402 -24.375 0.6875 C-22.45703125 -0.578125 -22.45703125 -0.578125 -20.1875 -1.5625 C-19.45144531 -1.89765625 -18.71539062 -2.2328125 -17.95703125 -2.578125 C-11.17404732 -4.50732467 -6.13012726 -2.80540815 0 0 Z " fill="#E5403D" transform="translate(36.375,8.3125)"/>
<path d="M0 0 C0 1.65 0 3.3 0 5 C-2.81951025 6.5270843 -5.65743285 8.01634034 -8.5 9.5 C-9.29148438 9.92925781 -10.08296875 10.35851563 -10.8984375 10.80078125 C-16.2792583 13.57940182 -19.94253879 14.81727651 -26 14 C-28.98655093 12.92022584 -31.71854211 11.52465099 -34.5 10 C-35.22703125 9.6184375 -35.9540625 9.236875 -36.703125 8.84375 C-38.47649265 7.91039861 -40.23940082 6.95721897 -42 6 C-42 4.35 -42 2.7 -42 1 C-41.48614746 1.24758057 -40.97229492 1.49516113 -40.44287109 1.75024414 C-38.09429221 2.87061618 -35.73509591 3.9666105 -33.375 5.0625 C-32.56675781 5.45244141 -31.75851563 5.84238281 -30.92578125 6.24414062 C-26.20803875 8.41123372 -23.12963484 9.73015352 -18 8 C-15.00578257 6.75312744 -12.09544004 5.37287705 -9.1875 3.9375 C-1.09038462 0 -1.09038462 0 0 0 Z " fill="#B71C1C" transform="translate(45,30)"/>
<path d="M0 0 C0.66 0.33 1.32 0.66 2 1 C1.34 2.65 0.68 4.3 0 6 C2.31 6.33 4.62 6.66 7 7 C7 7.66 7 8.32 7 9 C9.64 9.33 12.28 9.66 15 10 C15.33 9.34 15.66 8.68 16 8 C16.66 8 17.32 8 18 8 C18 6.68 18 5.36 18 4 C20.65728125 2.26254687 21.89600355 1.99168028 25.125 2.25 C28 3 28 3 30 5 C29 8 29 8 26.26953125 9.60546875 C25.12871094 10.12753906 23.98789062 10.64960938 22.8125 11.1875 C21.68457031 11.71730469 20.55664062 12.24710938 19.39453125 12.79296875 C12.42873649 15.2698739 7.99799535 13.48482061 1.625 10.5 C0.88894531 10.16613281 0.15289062 9.83226562 -0.60546875 9.48828125 C-2.40822198 8.66884796 -4.20476899 7.83578451 -6 7 C-6 5.68 -6 4.36 -6 3 C-4.03533587 1.93224776 -2.03144641 0.93446535 0 0 Z " fill="#E33A37" transform="translate(10,10)"/>
<path d="M0 0 C-1 3 -1 3 -2.76245117 4.18261719 C-5.23025849 5.38838452 -7.70100846 6.58313425 -10.1875 7.75 C-11.03892578 8.17410156 -11.89035156 8.59820312 -12.76757812 9.03515625 C-17.54643856 11.30446816 -20.777707 12.829555 -26 11 C-28.85668397 9.76038093 -31.61673053 8.38147651 -34.375 6.9375 C-35.47908203 6.37192383 -35.47908203 6.37192383 -36.60546875 5.79492188 C-38.40739646 4.87055636 -40.20423099 3.93627386 -42 3 C-42 2.34 -42 1.68 -42 1 C-36.6441701 1.43425648 -32.49846047 3.54891301 -27.78125 5.94140625 C-23.05734203 7.73941055 -20.1530681 7.50843948 -15.52734375 5.46875 C-14.32424367 4.8244669 -13.12763897 4.16792198 -11.9375 3.5 C-7.92109075 1.26049516 -4.73793381 -0.50155821 0 0 Z " fill="#E03632" transform="translate(45,28)"/>
<path d="M0 0 C0 0.99 0 1.98 0 3 C-3.17427031 4.54961901 -6.36605972 6.05921257 -9.5625 7.5625 C-10.45775391 8.00013672 -11.35300781 8.43777344 -12.27539062 8.88867188 C-17.61299576 11.3717336 -21.12886787 12.7558526 -27 11 C-29.71753999 9.94255291 -32.32556311 8.73193388 -34.9375 7.4375 C-35.62134766 7.10814453 -36.30519531 6.77878906 -37.00976562 6.43945312 C-38.67731871 5.63482961 -40.33926839 4.8186103 -42 4 C-42 3.01 -42 2.02 -42 1 C-36.15939735 1.67792709 -32.05688802 3.96264401 -27 6.8203125 C-23.3462496 8.25707372 -21.7461312 8.10096222 -18 7 C-15.56358285 5.86861253 -13.22897261 4.71573244 -10.875 3.4375 C-7.05811352 1.3669809 -4.4887344 0 0 0 Z " fill="#E03632" transform="translate(45,20)"/>
<path d="M0 0 C0.66 0.66 1.32 1.32 2 2 C-2.04365799 4.021829 -4.63113288 4.19150921 -9 3 C-9.33 2.34 -9.66 1.68 -10 1 C-6.42894485 -1.33492068 -4.06144397 -1.05950712 0 0 Z " fill="#B21E1E" transform="translate(38,13)"/>
<path d="M0 0 C2.31 0 4.62 0 7 0 C7.33 0.99 7.66 1.98 8 3 C5.29120665 4.35439668 2.99066732 4.06501451 0 4 C0 2.68 0 1.36 0 0 Z " fill="#FCECEC" transform="translate(10,13)"/>
<path d="M0 0 C-0.99 1.485 -0.99 1.485 -2 3 C-4.9375 2.625 -4.9375 2.625 -8 2 C-8.33 1.34 -8.66 0.68 -9 0 C-5.62182575 -0.84454356 -3.32534757 -1.10844919 0 0 Z " fill="#FBE5E4" transform="translate(27,18)"/>
<path d="M0 0 C1.98 0.66 3.96 1.32 6 2 C5.01 2.495 5.01 2.495 4 3 C3.67 3.66 3.34 4.32 3 5 C1.68 4.01 0.36 3.02 -1 2 C-0.67 1.34 -0.34 0.68 0 0 Z " fill="#FBE7E6" transform="translate(21,8)"/>
</svg>
