<?xml version="1.0" encoding="UTF-8"?>
<svg version="1.1" xmlns="http://www.w3.org/2000/svg" width="48" height="48">
<path d="M0 0 C1.01489502 0.30490356 1.01489502 0.30490356 2.05029297 0.6159668 C7.81942452 2.5483822 13.22457515 5.09974356 17 10 C20.12191729 18.18273911 20.21202134 27.83736534 17 36 C12.34622453 41.76604506 5.14040988 45.3045567 -2 47 C-6.97763957 46.80768211 -9.33927075 45.33772372 -13 42 C-10.8125 40.875 -10.8125 40.875 -8 40 C-7.278125 40.37640625 -6.55625 40.7528125 -5.8125 41.140625 C-2.35913058 42.19582121 -0.44500879 41.49637447 2.77880859 39.9921875 C9.04696419 36.55693221 9.04696419 36.55693221 12.93017578 30.74707031 C14.30186063 24.79570915 14.35329644 18.69979516 12 13 C8.18584155 8.22878806 2.77046539 5.63845338 -3 4 C-5.64973559 4.55150499 -5.64973559 4.55150499 -8 6 C-9.02738281 6.33773438 -10.05476563 6.67546875 -11.11328125 7.0234375 C-14.92583801 8.63411472 -17.22415513 9.8912267 -20 13 C-21.60522064 19.08217838 -21.65616344 26.91217164 -20 33 C-17.18490007 35.2773501 -17.18490007 35.2773501 -14 35 C-13.67 28.07 -13.34 21.14 -13 14 C-11.68 14 -10.36 14 -9 14 C-8.94214353 17.95827235 -8.90645283 21.9164367 -8.875 25.875 C-8.85824219 27.00292969 -8.84148438 28.13085938 -8.82421875 29.29296875 C-8.81777344 30.36933594 -8.81132812 31.44570313 -8.8046875 32.5546875 C-8.79421387 33.54968262 -8.78374023 34.54467773 -8.77294922 35.56982422 C-9 38 -9 38 -11 40 C-17.12459714 40.72054084 -19.96149553 39.05327337 -25 36 C-28.0047198 13.95484523 -28.0047198 13.95484523 -23.23193359 7.67285156 C-16.99008785 2.45033132 -8.20875895 -2.6634803 0 0 Z " fill="#20A365" transform="translate(28,1)"/>
<path d="M0 0 C2.5646165 2.18746702 2.8573244 3.51116765 3.125 6.8125 C0.65 6.3175 0.65 6.3175 -1.875 5.8125 C-1.875 5.1525 -1.875 4.4925 -1.875 3.8125 C-4.515 3.8125 -7.155 3.8125 -9.875 3.8125 C-9.875 4.4725 -9.875 5.1325 -9.875 5.8125 C-9.10414062 5.93367188 -8.33328125 6.05484375 -7.5390625 6.1796875 C-6.53617188 6.34726562 -5.53328125 6.51484375 -4.5 6.6875 C-3.50226562 6.84992187 -2.50453125 7.01234375 -1.4765625 7.1796875 C1.125 7.8125 1.125 7.8125 3.125 9.8125 C3.67984108 15.02800615 3.67984108 15.02800615 1.9453125 17.48046875 C-0.54161022 19.30029846 -2.25588866 19.21238422 -5.3125 19.1875 C-6.25996094 19.19523437 -7.20742188 19.20296875 -8.18359375 19.2109375 C-11.27015984 18.75400028 -12.66549511 17.99095798 -14.875 15.8125 C-15.125 13.125 -15.125 13.125 -14.875 10.8125 C-12.9375 11.1875 -12.9375 11.1875 -10.875 11.8125 C-10.545 12.4725 -10.215 13.1325 -9.875 13.8125 C-7.235 13.8125 -4.595 13.8125 -1.875 13.8125 C-1.545 13.1525 -1.215 12.4925 -0.875 11.8125 C-2.13957031 11.64814453 -2.13957031 11.64814453 -3.4296875 11.48046875 C-4.52539062 11.32191406 -5.62109375 11.16335937 -6.75 11 C-7.84054688 10.84917969 -8.93109375 10.69835938 -10.0546875 10.54296875 C-12.875 9.8125 -12.875 9.8125 -14.875 6.8125 C-14.75 3.75 -14.75 3.75 -13.875 0.8125 C-9.9502215 -2.50846643 -4.48330643 -1.85180048 0 0 Z " fill="#20A365" transform="translate(34.875,15.1875)"/>
</svg>
