<?xml version="1.0" encoding="UTF-8"?>
<svg version="1.1" xmlns="http://www.w3.org/2000/svg" width="48" height="48">
<path d="M0 0 C0.94875 0.53625 1.8975 1.0725 2.875 1.625 C3.52001465 1.9648291 4.1650293 2.3046582 4.82958984 2.65478516 C6.99861469 3.80911384 9.12315877 5.01954882 11.25 6.25 C15.024375 8.415625 15.024375 8.415625 18.875 10.625 C18.875 19.205 18.875 27.785 18.875 36.625 C15.69875 38.48125 12.5225 40.3375 9.25 42.25 C8.2604834 42.84248535 7.2709668 43.4349707 6.25146484 44.04541016 C-0.2511953 47.72985656 -0.2511953 47.72985656 -4.25 47.25 C-5.19875 46.71375 -6.1475 46.1775 -7.125 45.625 C-7.77001465 45.2851709 -8.4150293 44.9453418 -9.07958984 44.59521484 C-11.24861469 43.44088616 -13.37315877 42.23045118 -15.5 41 C-19.274375 38.834375 -19.274375 38.834375 -23.125 36.625 C-23.125 28.045 -23.125 19.465 -23.125 10.625 C-19.94875 8.76875 -16.7725 6.9125 -13.5 5 C-12.5104834 4.40751465 -11.5209668 3.8150293 -10.50146484 3.20458984 C-3.9988047 -0.47985656 -3.9988047 -0.47985656 0 0 Z " fill="#4B5F69" transform="translate(26.125,0.375)"/>
<path d="M0 0 C4.0322912 1.98077463 6.46698025 3.70754471 8 8 C5.75 9.625 5.75 9.625 3 11 C1.0625 10.25 1.0625 10.25 -1 9 C-3.91004903 7.91776634 -3.91004903 7.91776634 -7 8 C-10.08333333 9.91666667 -10.08333333 9.91666667 -12 13 C-12.0715787 16.57893502 -11.6663269 18.234958 -9.3125 20.9375 C-6.14176565 22.39432389 -4.32780148 21.90127957 -1 21 C-0.319375 20.5875 0.36125 20.175 1.0625 19.75 C1.701875 19.5025 2.34125 19.255 3 19 C5.75 20.375 5.75 20.375 8 22 C6.46698025 26.29245529 4.0322912 28.01922537 0 30 C-4.63927875 30.82445014 -8.97632975 31.11625939 -13.1953125 28.7890625 C-17.08630794 25.58184031 -19.59728594 22.52857962 -20.40625 17.44921875 C-20.57869953 12.36914306 -20.56571225 8.92764648 -17.1875 4.9375 C-11.89256264 -0.40973304 -7.29378176 -0.85441443 0 0 Z " fill="#F9FAFA" transform="translate(29,9)"/>
<path d="M0 0 C0.928125 0.5259375 1.85625 1.051875 2.8125 1.59375 C3.39563965 1.9026416 3.9787793 2.2115332 4.57958984 2.52978516 C6.47818202 3.54831358 8.33262373 4.62286277 10.1875 5.71875 C10.82816406 6.09128906 11.46882813 6.46382813 12.12890625 6.84765625 C13.69298477 7.75809002 15.25315534 8.67523191 16.8125 9.59375 C16.8125 10.58375 16.8125 11.57375 16.8125 12.59375 C16.008125 12.8825 15.20375 13.17125 14.375 13.46875 C11.6798532 14.32637568 11.6798532 14.32637568 10.8125 16.59375 C9.94625 15.418125 9.94625 15.418125 9.0625 14.21875 C6.30066298 10.99660681 4.42642091 9.82535496 0.2265625 9.22265625 C-6.22045807 8.99125183 -6.22045807 8.99125183 -11.75 11.90625 C-15.32624761 15.84929224 -16.45273716 17.83589118 -16.375 23.09375 C-16.36855469 24.0528125 -16.36210937 25.011875 -16.35546875 26 C-16.29042931 28.70872767 -16.29042931 28.70872767 -15.1875 31.59375 C-20.9375 34.59375 -20.9375 34.59375 -23.1875 34.59375 C-23.1875 26.67375 -23.1875 18.75375 -23.1875 10.59375 C-20.01125 8.7375 -16.835 6.88125 -13.5625 4.96875 C-12.5729834 4.37626465 -11.5834668 3.7837793 -10.56396484 3.17333984 C-4.05192406 -0.51642169 -4.05192406 -0.51642169 0 0 Z M8.8125 16.59375 C9.4725 16.92375 10.1325 17.25375 10.8125 17.59375 C10.4825 18.91375 10.1525 20.23375 9.8125 21.59375 C10.4725 21.59375 11.1325 21.59375 11.8125 21.59375 C12.1425 20.93375 12.4725 20.27375 12.8125 19.59375 C12.8125 20.25375 12.8125 20.91375 12.8125 21.59375 C13.4725 21.92375 14.1325 22.25375 14.8125 22.59375 C14.4825 23.25375 14.1525 23.91375 13.8125 24.59375 C14.4725 24.92375 15.1325 25.25375 15.8125 25.59375 C15.1525 25.59375 14.4925 25.59375 13.8125 25.59375 C13.8125 26.25375 13.8125 26.91375 13.8125 27.59375 C13.1525 27.59375 12.4925 27.59375 11.8125 27.59375 C11.8125 26.93375 11.8125 26.27375 11.8125 25.59375 C11.1525 25.59375 10.4925 25.59375 9.8125 25.59375 C9.4825 26.25375 9.1525 26.91375 8.8125 27.59375 C8.8125 26.93375 8.8125 26.27375 8.8125 25.59375 C8.1525 25.26375 7.4925 24.93375 6.8125 24.59375 C7.4725 24.59375 8.1325 24.59375 8.8125 24.59375 C8.8125 23.93375 8.8125 23.27375 8.8125 22.59375 C7.8225 22.59375 6.8325 22.59375 5.8125 22.59375 C6.1875 20.15625 6.1875 20.15625 6.8125 17.59375 C7.4725 17.26375 8.1325 16.93375 8.8125 16.59375 Z " fill="#556E79" transform="translate(26.1875,0.40625)"/>
<path d="M0 0 C1.9375 1.4375 1.9375 1.4375 4 3.5625 C8.47308187 6.41765864 12.77199077 6.21232638 17.9375 5.4375 C21.35973531 3.71339884 21.35973531 3.71339884 23.9375 1.4375 C25.9375 0 25.9375 0 27.9375 -0.5625 C31.1875 0.8125 31.1875 0.8125 33.9375 2.4375 C33.9375 3.0975 33.9375 3.7575 33.9375 4.4375 C30.74792882 6.34587457 27.5335446 8.20782342 24.3125 10.0625 C23.40886719 10.60390625 22.50523438 11.1453125 21.57421875 11.703125 C14.82753269 15.54430392 14.82753269 15.54430392 10.8125 15.0625 C9.389375 14.258125 9.389375 14.258125 7.9375 13.4375 C6.96997803 12.92775635 6.96997803 12.92775635 5.98291016 12.40771484 C3.81456694 11.25374891 1.68841816 10.04268772 -0.4375 8.8125 C-1.17355469 8.39226563 -1.90960938 7.97203125 -2.66796875 7.5390625 C-4.4688765 6.50997236 -6.26607318 5.47439244 -8.0625 4.4375 C-8.0625 3.7775 -8.0625 3.1175 -8.0625 2.4375 C-2.69407895 -0.7347488 -2.69407895 -0.7347488 0 0 Z " fill="#3A4951" transform="translate(11.0625,32.5625)"/>
<path d="M0 0 C2.8125 0.9375 2.8125 0.9375 4.8125 3.9375 C0.8525 6.5775 -3.1075 9.2175 -7.1875 11.9375 C-7.8475 11.2775 -8.5075 10.6175 -9.1875 9.9375 C-9.10375146 6.08506703 -8.59304335 4.38939116 -6 1.5 C-3.1875 -0.0625 -3.1875 -0.0625 0 0 Z " fill="#5B747F" transform="translate(25.1875,16.0625)"/>
<path d="M0 0 C-0.625 1.9375 -0.625 1.9375 -2 4 C-4.875 4.9375 -4.875 4.9375 -8 5 C-10.375 3.5625 -10.375 3.5625 -12 2 C-11 -1 -11 -1 -9.25 -2.3125 C-5.61234529 -3.4240056 -3.2381599 -1.61907995 0 0 Z " fill="#3E4E55" transform="translate(30,27)"/>
<path d="M0 0 C0 0.99 0 1.98 0 3 C0.99 3 1.98 3 3 3 C3 3.66 3 4.32 3 5 C2.01 5 1.02 5 0 5 C0.33 5.99 0.66 6.98 1 8 C-3.31392226 7.5206753 -5.16569547 6.2542015 -8 3 C-3.375 0 -3.375 0 0 0 Z " fill="#455963" transform="translate(32,20)"/>
<path d="M0 0 C0.33 0.66 0.66 1.32 1 2 C1.66 2 2.32 2 3 2 C3.33 1.34 3.66 0.68 4 0 C4 0.66 4 1.32 4 2 C4.66 2.33 5.32 2.66 6 3 C5.67 3.66 5.34 4.32 5 5 C5.66 5.33 6.32 5.66 7 6 C6.34 6 5.68 6 5 6 C5 6.66 5 7.32 5 8 C4.34 8 3.68 8 3 8 C3 7.34 3 6.68 3 6 C2.34 6 1.68 6 1 6 C0.67 6.66 0.34 7.32 0 8 C0 7.34 0 6.68 0 6 C-0.66 5.67 -1.32 5.34 -2 5 C-1.34 5 -0.68 5 0 5 C0 4.34 0 3.68 0 3 C-0.66 2.67 -1.32 2.34 -2 2 C-1.34 2 -0.68 2 0 2 C0 1.34 0 0.68 0 0 Z " fill="#D0D5D7" transform="translate(35,20)"/>
</svg>
