<?xml version="1.0" encoding="UTF-8"?>
<svg version="1.1" xmlns="http://www.w3.org/2000/svg" width="48" height="48">
<path d="M0 0 C1.19230225 -0.0151062 1.19230225 -0.0151062 2.40869141 -0.03051758 C10.33556442 0.08449468 17.66783287 1.78758809 23.5 7.4375 C25.1125911 10.6626822 25.09020266 13.94993884 24.5 17.4375 C20.69266961 22.47661375 15.62007549 25.15088911 9.5 26.4375 C-1.02932491 27.30152517 -11.54285713 27.53303572 -20.5 21.375 C-23.35569601 18.60854449 -23.47319349 17.71003289 -23.875 13.625 C-23.80928376 10.32126553 -23.55966629 9.52218764 -21.5625 6.6875 C-14.43559459 1.45140623 -8.7944999 0.0723652 0 0 Z " fill="#858CB4" transform="translate(23.5,10.5625)"/>
<path d="M0 0 C0.99 0 1.98 0 3 0 C3 0.99 3 1.98 3 3 C5.475 3.495 5.475 3.495 8 4 C7.67 6.97 7.34 9.94 7 13 C6.34 13 5.68 13 5 13 C5 10.36 5 7.72 5 5 C4.01 5 3.02 5 2 5 C1.67 7.64 1.34 10.28 1 13 C0.01 13 -0.98 13 -2 13 C-2.33 12.34 -2.66 11.68 -3 11 C-3.66 11.66 -4.32 12.32 -5 13 C-7.625 13.125 -7.625 13.125 -10 13 C-10.33 13.99 -10.66 14.98 -11 16 C-11.66 16 -12.32 16 -13 16 C-12.85966889 14.02043559 -12.7125877 12.04134859 -12.5625 10.0625 C-12.48128906 8.96035156 -12.40007813 7.85820312 -12.31640625 6.72265625 C-12 4 -12 4 -11 3 C-7.5625 2.8125 -7.5625 2.8125 -4 3 C-3.34 3.66 -2.68 4.32 -2 5 C-1.34 3.35 -0.68 1.7 0 0 Z " fill="#31363F" transform="translate(21,15)"/>
<path d="M0 0 C6.0546875 -0.1953125 6.0546875 -0.1953125 8 0 C8.66 0.66 9.32 1.32 10 2 C9.8125 5 9.8125 5 9 8 C5.77208445 10.1519437 4.71599191 10.20086443 1 10 C1 10.99 1 11.98 1 13 C0.01 13 -0.98 13 -2 13 C-1.34 8.71 -0.68 4.42 0 0 Z " fill="#343943" transform="translate(31,18)"/>
<path d="M0 0 C0.33 0.66 0.66 1.32 1 2 C2.98 1.67 4.96 1.34 7 1 C7 3.64 7 6.28 7 9 C5.35 9 3.7 9 2 9 C1.67 9.99 1.34 10.98 1 12 C0.34 12 -0.32 12 -1 12 C-0.67 8.04 -0.34 4.08 0 0 Z " fill="#2F343D" transform="translate(9,19)"/>
<path d="M0 0 C2.31 0 4.62 0 7 0 C6.67 0.66 6.34 1.32 6 2 C5.01 2 4.02 2 3 2 C2.67 3.65 2.34 5.3 2 7 C2.99 7.33 3.98 7.66 5 8 C3.68 8 2.36 8 1 8 C1 9.32 1 10.64 1 12 C0.01 12 -0.98 12 -2 12 C-1.34 8.04 -0.68 4.08 0 0 Z " fill="#282D33" transform="translate(31,19)"/>
<path d="M0 0 C3.375 -0.125 3.375 -0.125 7 0 C7.66 0.66 8.32 1.32 9 2 C8.625 5.125 8.625 5.125 8 8 C7.01 8 6.02 8 5 8 C5.33 6.02 5.66 4.04 6 2 C4.02 2.33 2.04 2.66 0 3 C0 2.01 0 1.02 0 0 Z " fill="#2C3138" transform="translate(10,18)"/>
<path d="M0 0 C2.0625 0.4375 2.0625 0.4375 4 1 C3.67 2.32 3.34 3.64 3 5 C1.68 5.33 0.36 5.66 -1 6 C-1.042721 4.33388095 -1.04063832 2.66617115 -1 1 C-0.67 0.67 -0.34 0.34 0 0 Z " fill="#7A80A5" transform="translate(34,20)"/>
<path d="M0 0 C1.32 0 2.64 0 4 0 C4 1.65 4 3.3 4 5 C2.35 5.33 0.7 5.66 -1 6 C-0.67 4.02 -0.34 2.04 0 0 Z " fill="#777EA2" transform="translate(12,20)"/>
</svg>
