<?xml version="1.0" encoding="UTF-8"?>
<svg version="1.1" xmlns="http://www.w3.org/2000/svg" width="48" height="48">
<path d="M0 0 C0.67617524 2.37265061 1.34108226 4.74755355 2 7.125 C2.19078125 7.79015625 2.3815625 8.4553125 2.578125 9.140625 C3.69623198 13.213729 4.19093885 16.78741163 4 21 C4 22.32 4 23.64 4 25 C3.62251184 32.30244331 2.1122786 39.01221043 0 46 C-2.77124036 45.35587386 -5.54199445 44.70977252 -8.3125 44.0625 C-9.09818359 43.88009766 -9.88386719 43.69769531 -10.69335938 43.50976562 C-11.45068359 43.33251953 -12.20800781 43.15527344 -12.98828125 42.97265625 C-13.68477783 42.81031494 -14.38127441 42.64797363 -15.09887695 42.48071289 C-16.7534406 42.06234435 -18.38094108 41.53968631 -20 41 C-20.37125 40.01 -20.37125 40.01 -20.75 39 C-21.1625 38.34 -21.575 37.68 -22 37 C-23.04800781 36.91878906 -24.09601562 36.83757813 -25.17578125 36.75390625 C-30.17328245 35.76869917 -32.10147801 33.60000846 -35.4375 29.9375 C-35.97826172 29.36966797 -36.51902344 28.80183594 -37.07617188 28.21679688 C-38.39826737 26.82450162 -39.70115676 25.4140116 -41 24 C-39.41882563 20.26109044 -37.10296601 17.67293837 -34.3125 14.75 C-33.48363281 13.85796875 -32.65476562 12.9659375 -31.80078125 12.046875 C-28.31086797 9.49636655 -26.22656931 9.60392199 -22 10 C-21.855625 9.23300781 -21.71125 8.46601563 -21.5625 7.67578125 C-19.44909528 4.05657566 -17.45193006 3.81618054 -13.5234375 2.78320312 C-12.69070312 2.58662109 -11.85796875 2.39003906 -11 2.1875 C-10.16726562 1.97158203 -9.33453125 1.75566406 -8.4765625 1.53320312 C-2.46056548 0 -2.46056548 0 0 0 Z M-10 8 C-18.47756197 9.49604035 -23.64611316 12.15807011 -29 19 C-29 19.33 -29 19.66 -29 20 C-24.20310662 20.59139781 -19.76972072 20.88935969 -15 20 C-11.92446971 17.11766941 -10.22102654 14.02608752 -9 10 C-9.33 9.34 -9.66 8.68 -10 8 Z M-4 12 C-7.07157344 15.73569742 -9.89275731 19.2126219 -10.1875 24.125 C-8.6186041 27.92337955 -6.52837449 30.75849424 -4 34 C-0.91209841 29.36814761 0.53088824 24.74992468 -0.54296875 19.1875 C-1.28012128 16.75108977 -2.07877168 14.37241058 -3 12 C-3.33 12 -3.66 12 -4 12 Z M-29 26 C-28.04270084 27.12588014 -27.08412105 28.2506715 -26.125 29.375 C-25.32449219 30.31472656 -25.32449219 30.31472656 -24.5078125 31.2734375 C-22.10890516 34.02037285 -20.64889507 35.3032018 -17.125 36.1875 C-16.44695313 36.36667969 -15.76890625 36.54585937 -15.0703125 36.73046875 C-12.77181444 37.02970718 -11.19449036 36.69377386 -9 36 C-10.46410966 32.09570757 -12.00665186 28.94173869 -15 26 C-19.76795592 25.0993861 -24.2032457 25.40861933 -29 26 Z " fill="#36464E" transform="translate(41,1)"/>
</svg>
