<?xml version="1.0" encoding="UTF-8"?>
<svg version="1.1" xmlns="http://www.w3.org/2000/svg" width="48" height="48">
<path d="M0 0 C5.46185727 2.83716614 10.82235739 8.54519718 12.76953125 14.38671875 C13.89537018 29.07799392 13.89537018 29.07799392 8.76953125 35.38671875 C3.18010234 40.95021063 -0.97647382 43.67432444 -9.04296875 43.76171875 C-16.39637572 43.62469874 -19.90033735 42.73030523 -25.1640625 37.4453125 C-31.03662723 31.02921059 -31.59795893 26.50084978 -31.5 17.8359375 C-30.91181787 10.30891117 -26.67517969 6.51405288 -21.1328125 1.76953125 C-15.64537754 -2.21928184 -6.30901208 -1.73470209 0 0 Z " fill="#EEF3F8" transform="translate(33.23046875,2.61328125)"/>
<path d="M0 0 C4.32651785 3.2689246 7.14325064 5.73921013 9 11 C9.5648889 16.83718527 9.05993156 21.89672543 6 27 C2.7496225 30.71676721 -0.38967544 33.48469614 -5.125 35 C-8.19651204 35 -10.99883104 34.64310763 -14 34 C-14 33.67 -14 33.34 -14 33 C-11.36 33 -8.72 33 -6 33 C-7.32 28.71 -8.64 24.42 -10 20 C-12.10232344 22.8684413 -12.10232344 22.8684413 -13 26 C-13.66 26 -14.32 26 -15 26 C-14.649375 24.906875 -14.29875 23.81375 -13.9375 22.6875 C-12.57427557 17.37759784 -13.26951143 12.37007812 -14 7 C-14.99 6.67 -15.98 6.34 -17 6 C-13.37 6 -9.74 6 -6 6 C-6.99 6.495 -6.99 6.495 -8 7 C-6.02 12.61 -4.04 18.22 -2 24 C-0.11135988 18.33407963 0.24946614 16.51847546 -1 11 C-1.66 10.01 -2.32 9.02 -3 8 C-2.6169847 5.03163146 -1.40416706 2.62111184 0 0 Z " fill="#E7EFF5" transform="translate(35,8)"/>
<path d="M0 0 C5.46185727 2.83716614 10.82235739 8.54519718 12.76953125 14.38671875 C13.89537018 29.07799392 13.89537018 29.07799392 8.76953125 35.38671875 C3.18010234 40.95021063 -0.97647382 43.67432444 -9.04296875 43.76171875 C-16.39637572 43.62469874 -19.90033735 42.73030523 -25.1640625 37.4453125 C-31.03662723 31.02921059 -31.59795893 26.50084978 -31.5 17.8359375 C-30.91181787 10.30891117 -26.67517969 6.51405288 -21.1328125 1.76953125 C-15.64537754 -2.21928184 -6.30901208 -1.73470209 0 0 Z M-25.10546875 9.44921875 C-29.18872782 15.09372393 -30.24380934 19.43958998 -29.23046875 26.38671875 C-26.60845991 32.87984795 -21.96632807 36.77161723 -16.35546875 40.69921875 C-10.92821801 42.45509399 -5.36873932 41.71879486 -0.1875 39.5625 C4.58205319 36.69696006 7.83258335 32.34208829 10.20703125 27.38671875 C11.31290096 21.48874694 11.70445433 17.42371765 8.64453125 12.19921875 C5.30049815 7.37736932 1.2247736 3.69586939 -4.23046875 1.38671875 C-13.09738786 -0.04586172 -19.29923439 2.79659454 -25.10546875 9.44921875 Z " fill="#246CAB" transform="translate(33.23046875,2.61328125)"/>
<path d="M0 0 C1.03769531 -0.02578125 2.07539063 -0.0515625 3.14453125 -0.078125 C6.54901636 0.28898251 8.41142285 1.3000752 11.1875 3.25 C10.1975 4.735 10.1975 4.735 9.1875 6.25 C9.48613949 8.56445601 10.08159451 10.07937449 11.3125 12.0625 C12.95751288 16.1750322 11.58010494 20.1645628 10.125 24.1875 C9.815625 24.868125 9.50625 25.54875 9.1875 26.25 C7.17746365 23.23494548 6.19578459 20.67503788 5.0625 17.25 C4.70929687 16.198125 4.35609375 15.14625 3.9921875 14.0625 C3.1875 11.25 3.1875 11.25 3.1875 8.25 C1.2075 8.25 -0.7725 8.25 -2.8125 8.25 C-2.461875 8.889375 -2.11125 9.52875 -1.75 10.1875 C0.00999668 15.93682249 -1.21742643 21.88684795 -3.8125 27.25 C-5.81025873 24.25336191 -6.80247415 21.71337374 -7.9375 18.3125 C-8.29070313 17.27222656 -8.64390625 16.23195313 -9.0078125 15.16015625 C-9.8125 12.25 -9.8125 12.25 -9.8125 8.25 C-11.1325 7.59 -12.4525 6.93 -13.8125 6.25 C-6.55510707 0.09699295 -6.55510707 0.09699295 0 0 Z " fill="#0A5D9E" transform="translate(23.8125,6.75)"/>
<path d="M0 0 C2.17186421 2.17186421 2.6793248 3.49976531 3.625 6.375 C3.88539062 7.14585938 4.14578125 7.91671875 4.4140625 8.7109375 C5 11 5 11 5 15 C1.7 15 -1.6 15 -5 15 C-1.85714286 4.28571429 -1.85714286 4.28571429 0 0 Z " fill="#0F60A0" transform="translate(24,26)"/>
<path d="M0 0 C6.57142857 5 6.57142857 5 8 10 C7.01 9.67 6.02 9.34 5 9 C4.566875 10.918125 4.566875 10.918125 4.125 12.875 C3.45897517 15.82453855 3.19797403 16.80202597 1 19 C0.54427083 17.01432292 0.08854167 15.02864583 -0.3671875 13.04296875 C-0.98007723 10.72257026 -0.98007723 10.72257026 -3 8 C-2.6169847 5.03163146 -1.40416706 2.62111184 0 0 Z " fill="#F3F7FA" transform="translate(35,8)"/>
<path d="M0 0 C0.66 0 1.32 0 2 0 C3.17192435 3.12305373 4.33663876 6.24874739 5.5 9.375 C5.83386719 10.26445312 6.16773438 11.15390625 6.51171875 12.0703125 C6.82753906 12.92109375 7.14335937 13.771875 7.46875 14.6484375 C7.76201172 15.43395996 8.05527344 16.21948242 8.35742188 17.02880859 C9 19 9 19 9 21 C4.61144323 19.27592413 2.08513063 16.17026127 0 12 C-0.07065617 9.95944995 -0.08421976 7.91665743 -0.0625 5.875 C-0.05347656 4.77929688 -0.04445313 3.68359375 -0.03515625 2.5546875 C-0.02355469 1.71164063 -0.01195312 0.86859375 0 0 Z " fill="#1262A1" transform="translate(7,18)"/>
<path d="M0 0 C0.99 0.33 1.98 0.66 3 1 C3 6.87186524 -0.05006482 9.95064912 -3.875 14.0078125 C-7.30434253 17.22282112 -10.17323129 18.88086291 -14.875 19.1875 C-15.926875 19.0946875 -15.926875 19.0946875 -17 19 C-16.505 17.515 -16.505 17.515 -16 16 C-14.783125 15.5875 -13.56625 15.175 -12.3125 14.75 C-7.4346734 13.0773521 -4.75586448 10.2969729 -2 6 C-0.60794936 2.75381554 -0.60794936 2.75381554 0 0 Z " fill="#2B71AC" transform="translate(43,27)"/>
<path d="M0 0 C0.66 0.33 1.32 0.66 2 1 C2.68853935 13.89098663 2.68853935 13.89098663 0.25 17.625 C-1.73293141 19.71809427 -3.67994731 21.31357515 -6 23 C-3.22222222 13.62962963 -3.22222222 13.62962963 -1.875 9.8125 C-0.86365501 6.56174823 -0.40502703 3.37522523 0 0 Z " fill="#1D69A6" transform="translate(39,16)"/>
<path d="M0 0 C6.13053511 -0.32712342 10.62669111 -0.39366878 16 3 C15.67 3.99 15.34 4.98 15 6 C14.46890625 5.68289062 13.9378125 5.36578125 13.390625 5.0390625 C10.45464152 3.7629651 7.93825671 3.58292979 4.75 3.375 C3.67234375 3.30023438 2.5946875 3.22546875 1.484375 3.1484375 C0.66453125 3.09945313 -0.1553125 3.05046875 -1 3 C-0.67 2.01 -0.34 1.02 0 0 Z " fill="#CBDCEA" transform="translate(19,4)"/>
<path d="M0 0 C0.99 0.33 1.98 0.66 3 1 C3.25 8.625 3.25 8.625 1 12 C0 11 0 11 -0.09765625 8.49609375 C-0.08605469 7.48675781 -0.07445312 6.47742188 -0.0625 5.4375 C-0.05347656 4.42558594 -0.04445312 3.41367187 -0.03515625 2.37109375 C-0.02355469 1.58863281 -0.01195312 0.80617188 0 0 Z " fill="#C9DBEA" transform="translate(41,18)"/>
<path d="M0 0 C0.99 0.33 1.98 0.66 3 1 C3.06058594 1.68707031 3.12117187 2.37414062 3.18359375 3.08203125 C3.26738281 3.98308594 3.35117188 4.88414063 3.4375 5.8125 C3.51871094 6.70582031 3.59992187 7.59914063 3.68359375 8.51953125 C3.93489767 11.12743559 3.93489767 11.12743559 5 14 C4.01 14 3.02 14 2 14 C0.09391902 10.78817851 -0.22266247 8.46117397 -0.125 4.75 C-0.09792969 3.41195313 -0.09792969 3.41195313 -0.0703125 2.046875 C-0.04710937 1.37140625 -0.02390625 0.6959375 0 0 Z " fill="#B4CDE1" transform="translate(4,19)"/>
<path d="M0 0 C0.99 0 1.98 0 3 0 C3 3.63 3 7.26 3 11 C2.01 11.495 2.01 11.495 1 12 C0.67 8.04 0.34 4.08 0 0 Z " fill="#1463A2" transform="translate(43,17)"/>
<path d="M0 0 C4.29 0.33 8.58 0.66 13 1 C9.25631258 2.87184371 8.1599209 3.23999767 4.25 3.125 C3.45078125 3.10695312 2.6515625 3.08890625 1.828125 3.0703125 C1.22484375 3.04710937 0.6215625 3.02390625 0 3 C0 2.01 0 1.02 0 0 Z " fill="#1161A1" transform="translate(17,43)"/>
<path d="M0 0 C0.66 0.33 1.32 0.66 2 1 C-0.6234008 3.91488977 -3.71816394 5.88503898 -7 8 C-7 7.01 -7 6.02 -7 5 C-4.76671858 3.00180084 -2.68345751 1.34172876 0 0 Z " fill="#E2ECF3" transform="translate(17,5)"/>
<path d="M0 0 C0.66 0.33 1.32 0.66 2 1 C0.63016497 4.16115776 0.0109362 4.9927092 -3 7 C-3.66 6.34 -4.32 5.68 -5 5 C-3.35 3.35 -1.7 1.7 0 0 Z " fill="#3176AD" transform="translate(11,5)"/>
<path d="M0 0 C1.9453125 -0.29296875 1.9453125 -0.29296875 4.125 -0.1875 C5.40375 -0.125625 6.6825 -0.06375 8 0 C3.56 2.96 3.56 2.96 1 4 C0.01 3.67 -0.98 3.34 -2 3 C-1.34 2.01 -0.68 1.02 0 0 Z " fill="#1762A8" transform="translate(14,3)"/>
<path d="M0 0 C0.33 0 0.66 0 1 0 C1.33 2.97 1.66 5.94 2 9 C1.01 8.67 0.02 8.34 -1 8 C-1.04241723 5.66705225 -1.04092937 3.33297433 -1 1 C-0.67 0.67 -0.34 0.34 0 0 Z " fill="#1564A2" transform="translate(3,23)"/>
<path d="M0 0 C0.66 0 1.32 0 2 0 C4 3 4 3 4 6 C3.01 6 2.02 6 1 6 C0.67 4.02 0.34 2.04 0 0 Z " fill="#256AAF" transform="translate(41,11)"/>
</svg>
