<?xml version="1.0" encoding="UTF-8"?>
<svg version="1.1" xmlns="http://www.w3.org/2000/svg" width="48" height="48">
<path d="M0 0 C2.12508244 3.18762365 2.5020163 5.26512223 3 9 C3.556875 9.02578125 4.11375 9.0515625 4.6875 9.078125 C11.76440597 9.60411125 17.06648595 11.50651306 22.5 16.125 C24 18 24 18 24 20 C19.38 20.99 14.76 21.98 10 23 C9.83564453 24.62808594 9.83564453 24.62808594 9.66796875 26.2890625 C9.50841392 27.73444152 9.34822389 29.17975051 9.1875 30.625 C9.11724609 31.33785156 9.04699219 32.05070312 8.97460938 32.78515625 C8.44318938 37.41913863 7.36531606 40.89147841 5 45 C-2.36935838 45.41539181 -9.51309832 45.14782635 -15.75390625 40.76953125 C-17.66698762 38.05283576 -17.48143478 36.23948486 -17 33 C-15.1015625 30.5859375 -15.1015625 30.5859375 -12.625 28.375 C-8.53180876 24.74088652 -8.53180876 24.74088652 -6 20 C-6.18331302 14.22563978 -6.86193869 11.27154716 -11 7 C-9.99382318 4.32423308 -9.45785454 3.2214892 -6.8359375 1.953125 C-6.02382812 1.72109375 -5.21171875 1.4890625 -4.375 1.25 C-3.55773438 1.00765625 -2.74046875 0.7653125 -1.8984375 0.515625 C-1.27195312 0.34546875 -0.64546875 0.1753125 0 0 Z M-1 11 C-1.33 11.66 -1.66 12.32 -2 13 C-1.34 13 -0.68 13 0 13 C-0.33 12.34 -0.66 11.68 -1 11 Z M9 12 C8.67 12.66 8.34 13.32 8 14 C8.99 14 9.98 14 11 14 C11 13.34 11 12.68 11 12 C10.34 12 9.68 12 9 12 Z M16 15 C15.34 16.32 14.68 17.64 14 19 C15.65 19 17.3 19 19 19 C19 18.01 19 17.02 19 16 C18.01 15.67 17.02 15.34 16 15 Z M12 15 C11.01 15.33 10.02 15.66 9 16 C9.33 16.99 9.66 17.98 10 19 C10.99 18.34 11.98 17.68 13 17 C12.67 16.34 12.34 15.68 12 15 Z M5 19 C5 19.66 5 20.32 5 21 C5.99 21 6.98 21 8 21 C8 20.34 8 19.68 8 19 C7.01 19 6.02 19 5 19 Z M2 25 C2 25.99 2 26.98 2 28 C2.99 27.67 3.98 27.34 5 27 C4.01 26.34 3.02 25.68 2 25 Z M-1 26 C0 28 0 28 0 28 Z M-4 28 C-4.33 29.32 -4.66 30.64 -5 32 C-4.01 31.67 -3.02 31.34 -2 31 C-2.33 30.01 -2.66 29.02 -3 28 C-3.33 28 -3.66 28 -4 28 Z M-8 29 C-7 31 -7 31 -7 31 Z M5 29 C4.34 29.66 3.68 30.32 3 31 C4.32 31 5.64 31 7 31 C7 30.34 7 29.68 7 29 C6.34 29 5.68 29 5 29 Z M-12 31 C-12.99 32.485 -12.99 32.485 -14 34 C-12.68 33.67 -11.36 33.34 -10 33 C-10 32.34 -10 31.68 -10 31 C-10.66 31 -11.32 31 -12 31 Z M1 32 C1 32.99 1 33.98 1 35 C1.66 34.34 2.32 33.68 3 33 C2.34 32.67 1.68 32.34 1 32 Z M-6 34 C-4.515 34.99 -4.515 34.99 -3 36 C-3 35.34 -3 34.68 -3 34 C-3.99 34 -4.98 34 -6 34 Z M2.375 36.5 C1.92125 36.995 1.4675 37.49 1 38 C2.65 38 4.3 38 6 38 C6 37.01 6 36.02 6 35 C3.87635519 34.77390663 3.87635519 34.77390663 2.375 36.5 Z M-15 36 C-14.67 36.99 -14.34 37.98 -14 39 C-13.34 38.67 -12.68 38.34 -12 38 C-12 37.34 -12 36.68 -12 36 C-12.99 36 -13.98 36 -15 36 Z M-8 36 C-8.33 36.66 -8.66 37.32 -9 38 C-8.01 37.67 -7.02 37.34 -6 37 C-6.66 36.67 -7.32 36.34 -8 36 Z M-3 39 C-3 39.66 -3 40.32 -3 41 C-2.34 41 -1.68 41 -1 41 C-1 40.34 -1 39.68 -1 39 C-1.66 39 -2.32 39 -3 39 Z " fill="#B71E1E" transform="translate(21,0)"/>
<path d="M0 0 C0.51345509 8.30085731 -0.29278005 14.51935975 -4 22 C-11.19070532 22.40532159 -18.88583281 22.38649136 -24.72265625 17.58203125 C-26 16 -26 16 -26.5 13 C-26 10 -26 10 -23.8125 8.1875 C-21 7 -21 7 -18.3125 6.5 C-15.63137811 6.20110118 -15.63137811 6.20110118 -14 3 C-11.75 2.4375 -11.75 2.4375 -9 2 C-7.96875 1.649375 -6.9375 1.29875 -5.875 0.9375 C-3 0 -3 0 0 0 Z M-7 2 C-7 2.99 -7 3.98 -7 5 C-6.01 4.67 -5.02 4.34 -4 4 C-4.99 3.34 -5.98 2.68 -7 2 Z M-13 5 C-13.33 6.32 -13.66 7.64 -14 9 C-13.01 8.67 -12.02 8.34 -11 8 C-11.33 7.01 -11.66 6.02 -12 5 C-12.33 5 -12.66 5 -13 5 Z M-4 6 C-4.66 6.66 -5.32 7.32 -6 8 C-4.68 8 -3.36 8 -2 8 C-2 7.34 -2 6.68 -2 6 C-2.66 6 -3.32 6 -4 6 Z M-21 8 C-21.99 9.485 -21.99 9.485 -23 11 C-21.68 10.67 -20.36 10.34 -19 10 C-19 9.34 -19 8.68 -19 8 C-19.66 8 -20.32 8 -21 8 Z M-8 9 C-8 9.99 -8 10.98 -8 12 C-7.34 11.34 -6.68 10.68 -6 10 C-6.66 9.67 -7.32 9.34 -8 9 Z M-15 11 C-13.515 11.99 -13.515 11.99 -12 13 C-12 12.34 -12 11.68 -12 11 C-12.99 11 -13.98 11 -15 11 Z M-6.625 13.5 C-7.07875 13.995 -7.5325 14.49 -8 15 C-6.35 15 -4.7 15 -3 15 C-3 14.01 -3 13.02 -3 12 C-5.12364481 11.77390663 -5.12364481 11.77390663 -6.625 13.5 Z M-24 13 C-23.67 13.99 -23.34 14.98 -23 16 C-22.34 15.67 -21.68 15.34 -21 15 C-21 14.34 -21 13.68 -21 13 C-21.99 13 -22.98 13 -24 13 Z M-17 13 C-17.33 13.66 -17.66 14.32 -18 15 C-17.01 14.67 -16.02 14.34 -15 14 C-15.66 13.67 -16.32 13.34 -17 13 Z M-12 16 C-12 16.66 -12 17.32 -12 18 C-11.34 18 -10.68 18 -10 18 C-10 17.34 -10 16.68 -10 16 C-10.66 16 -11.32 16 -12 16 Z " fill="#CED7DB" transform="translate(30,23)"/>
<path d="M0 0 C2.12508244 3.18762365 2.5020163 5.26512223 3 9 C1.58249437 8.88490339 0.16598831 8.75746342 -1.25 8.625 C-2.43335938 8.52058594 -2.43335938 8.52058594 -3.640625 8.4140625 C-6.085877 7.98492887 -7.84836903 7.21399362 -10 6 C-9.67 5.01 -9.34 4.02 -9 3 C-6.93359375 2.05078125 -6.93359375 2.05078125 -4.4375 1.3125 C-3.61121094 1.06113281 -2.78492188 0.80976562 -1.93359375 0.55078125 C-1.29550781 0.36902344 -0.65742188 0.18726562 0 0 Z " fill="#CED6DA" transform="translate(21,0)"/>
</svg>
